<svg width="26" height="26" viewBox="0 0 26 26" fill="none" xmlns="http://www.w3.org/2000/svg">
<path d="M23.0814 3.15595H2.51455C2.23733 3.15595 2.0105 3.38276 2.0105 3.66001V3.74431C2.0105 4.02153 2.2373 4.24836 2.51455 4.24836H23.0814C23.3586 4.24836 23.5855 4.02155 23.5855 3.74431V3.66001C23.5855 3.38278 23.3586 3.15595 23.0814 3.15595ZM5.87605 17.6303C6.1533 17.6303 6.3801 17.4035 6.3801 17.1262V16.8599C6.3801 16.5826 6.1533 16.3558 5.87605 16.3558H3.15181C2.87456 16.3558 2.64775 16.5826 2.64775 16.8599V17.1262C2.64775 17.4035 2.87456 17.6303 3.15181 17.6303H5.87605ZM10.3956 4.79453H3.10444C2.85217 4.79453 2.64775 4.99899 2.64775 5.25122V15.8818H6.2771C6.43999 15.4178 6.69336 14.9643 7.06289 14.5351C9.46509 11.7455 10.4821 6.64707 10.7315 5.19189C10.7672 4.98371 10.6068 4.79453 10.3956 4.79453ZM2.64773 18.1043V23.3199C2.64773 24.2757 3.33047 23.5019 3.33047 23.5019C3.33047 23.5019 4.01321 22.6826 4.24082 23.4487C4.46841 24.2148 5.2877 23.4487 5.2877 23.4487C5.2877 23.4487 5.83391 22.1364 6.92629 23.0923C8.01868 24.0482 8.13992 22.7788 8.13992 22.7788C8.13992 22.7788 6.29468 20.5576 6.06179 18.1043H2.64773ZM22.37 17.6303C22.6472 17.6303 22.874 17.4035 22.874 17.1262V16.8599C22.874 16.5826 22.6472 16.3558 22.37 16.3558H19.6457C19.3685 16.3558 19.1417 16.5826 19.1417 16.8599V17.1262C19.1417 17.4035 19.3685 17.6303 19.6457 17.6303H22.37ZM22.4174 4.79453H15.1262C14.9149 4.79453 14.7546 4.98371 14.7903 5.19189C15.0397 6.64707 16.0567 11.7455 18.4589 14.5352C18.8284 14.9643 19.0818 15.4178 19.2447 15.8818H22.874V5.25122C22.874 4.99902 22.6696 4.79453 22.4174 4.79453ZM17.3818 22.7789C17.3818 22.7789 17.5031 24.0481 18.5955 23.0923C19.6878 22.1365 20.2341 23.4487 20.2341 23.4487C20.2341 23.4487 21.0533 24.2148 21.2809 23.4487C21.5085 22.6826 22.1913 23.5019 22.1913 23.5019C22.1913 23.5019 22.874 24.2757 22.874 23.3199V18.1043H19.46C19.2271 20.5576 17.3818 22.7789 17.3818 22.7789Z" fill="white"/>
</svg>
