<svg width="26" height="26" viewBox="0 0 26 26" fill="none" xmlns="http://www.w3.org/2000/svg">
<path d="M14.6909 24.901H11.3021L9.69835 22.026C9.21449 20.9099 8.96476 19.7063 8.9646 18.4898C8.96456 16.6186 9.55462 14.795 10.6508 13.2785L10.8621 12.9848C11.323 12.3471 11.5711 11.5803 11.5708 10.7935C11.5721 10.2392 11.4504 9.69147 11.2146 9.18979L10.4983 7.67979H15.5896L14.9121 9.23729C14.7071 9.70641 14.6011 10.2128 14.6009 10.7248V10.8235C14.5991 11.5926 14.8339 12.3436 15.2734 12.9748L15.5233 13.3235C16.5648 14.8171 17.1232 16.594 17.1234 18.4148V18.496C17.123 19.7124 16.8737 20.9159 16.3908 22.0323L14.6909 24.901Z" fill="white"/>
<path d="M14.4658 3.18604C14.4462 3.28743 14.4065 3.38389 14.3491 3.46975C14.2918 3.55562 14.2178 3.62918 14.1317 3.68611C14.0455 3.74304 13.9488 3.7822 13.8473 3.80131C13.7458 3.82041 13.6415 3.81907 13.5406 3.79736C13.4396 3.77566 13.344 3.73402 13.2593 3.67489C13.1746 3.61576 13.1026 3.54033 13.0475 3.45301C12.9923 3.3657 12.9551 3.26826 12.9381 3.16639C12.9211 3.06453 12.9246 2.96029 12.9483 2.85979C13.0121 2.56354 13.5408 1.94604 13.8458 1.60979C13.8676 1.58559 13.8954 1.56756 13.9264 1.55753C13.9573 1.54751 13.9904 1.54583 14.0223 1.55268C14.0541 1.55953 14.0835 1.57466 14.1077 1.59654C14.1318 1.61842 14.1497 1.64627 14.1596 1.67729C14.3021 2.10854 14.5296 2.88979 14.4658 3.18604Z" fill="white"/>
<path d="M13.7083 3.98729C13.6398 3.98722 13.5715 3.97967 13.5046 3.96479C13.3808 3.93837 13.2635 3.88781 13.1593 3.81601C13.0552 3.74421 12.9662 3.65258 12.8974 3.54634C12.8287 3.44011 12.7816 3.32137 12.7588 3.19692C12.736 3.07246 12.738 2.94473 12.7646 2.82104C12.8196 2.56229 13.1396 2.11354 13.7071 1.48354C13.7513 1.43566 13.8073 1.40014 13.8695 1.3805C13.9316 1.36085 13.9979 1.35775 14.0616 1.37151C14.1253 1.38526 14.1844 1.4154 14.2329 1.45894C14.2814 1.50248 14.3178 1.55792 14.3383 1.61979C14.5996 2.42729 14.7046 2.96729 14.6496 3.22479C14.6029 3.44004 14.4842 3.63293 14.3131 3.77157C14.1419 3.91021 13.9286 3.98631 13.7083 3.98729ZM13.9821 1.73729C13.4008 2.38229 13.1608 2.76229 13.1308 2.90229C13.0977 3.05495 13.1265 3.21453 13.211 3.34593C13.2955 3.47732 13.4288 3.56976 13.5815 3.60291C13.7341 3.63606 13.8937 3.60721 14.0251 3.5227C14.1565 3.4382 14.2489 3.30495 14.2821 3.15229C14.3121 3.00604 14.2496 2.56104 13.9821 1.73479V1.73729Z" fill="white"/>
<path d="M15.3321 5.32104C15.2697 5.40447 15.1912 5.47448 15.1011 5.52692C15.0111 5.57935 14.9115 5.61313 14.8081 5.62623C14.7048 5.63934 14.5998 5.63151 14.4996 5.60321C14.3993 5.57491 14.3058 5.52672 14.2245 5.46151C14.1433 5.3963 14.076 5.3154 14.0267 5.22363C13.9774 5.13187 13.947 5.03112 13.9375 4.92738C13.9279 4.82364 13.9393 4.71904 13.9711 4.61981C14.0028 4.52058 14.0541 4.42875 14.1221 4.34979C14.3121 4.11354 15.0634 3.79979 15.4871 3.63604C15.5174 3.6242 15.5504 3.62057 15.5825 3.62553C15.6147 3.63048 15.645 3.64384 15.6704 3.66426C15.6957 3.68468 15.7153 3.71143 15.727 3.74181C15.7387 3.77219 15.7422 3.80513 15.7371 3.83729C15.6684 4.28479 15.5221 5.08479 15.3321 5.32104Z" fill="white"/>
<path d="M14.7259 5.79854C14.5442 5.79831 14.3664 5.74677 14.2128 5.64985C14.0592 5.55293 13.9361 5.41458 13.8577 5.25075C13.7793 5.08692 13.7488 4.90427 13.7697 4.72385C13.7906 4.54344 13.8621 4.3726 13.9759 4.23104C14.1421 4.02479 14.6271 3.76604 15.4196 3.45979C15.4805 3.43754 15.5461 3.43145 15.61 3.4421C15.6739 3.45276 15.734 3.47981 15.7844 3.5206C15.8347 3.56139 15.8737 3.61454 15.8974 3.67486C15.9211 3.73519 15.9287 3.80062 15.9196 3.86479C15.7946 4.70354 15.6421 5.23979 15.4759 5.43854C15.3967 5.53752 15.2987 5.61986 15.1876 5.68078C15.0765 5.74171 14.9544 5.78004 14.8284 5.79354C14.7943 5.79699 14.7601 5.79866 14.7259 5.79854ZM15.5521 3.80729C14.7434 4.12229 14.3584 4.35354 14.2684 4.46604C14.1706 4.58772 14.1252 4.74325 14.142 4.89842C14.1589 5.05359 14.2367 5.19571 14.3584 5.29354C14.48 5.39129 14.6356 5.43673 14.7907 5.41985C14.9459 5.40297 15.088 5.32517 15.1859 5.20354C15.2759 5.09229 15.4196 4.66604 15.5521 3.80729Z" fill="white"/>
<path d="M8.92709 6.22479C9.08004 6.11126 9.2694 6.05793 9.45912 6.07495C9.64884 6.09197 9.82568 6.17815 9.95598 6.3171C10.0863 6.45604 10.1609 6.63805 10.1658 6.82847C10.1706 7.01889 10.1052 7.20443 9.98209 7.34979C9.75959 7.55604 8.97209 7.75979 8.52959 7.86104C8.49784 7.86831 8.46473 7.86713 8.43357 7.85761C8.40242 7.84808 8.37431 7.83056 8.35204 7.80678C8.32978 7.78299 8.31414 7.75379 8.30669 7.72207C8.29924 7.69036 8.30024 7.65724 8.30959 7.62604C8.44334 7.19604 8.70209 6.42479 8.92709 6.22479Z" fill="white"/>
<path d="M8.48586 8.05854C8.42778 8.05788 8.37065 8.04374 8.31897 8.01723C8.2673 7.99073 8.22248 7.95258 8.18806 7.9058C8.15364 7.85901 8.13056 7.80488 8.12063 7.74765C8.1107 7.69043 8.1142 7.63168 8.13086 7.57604C8.38086 6.76354 8.60211 6.26104 8.79586 6.07604C8.98366 5.90182 9.23299 5.80935 9.48897 5.81896C9.74496 5.82857 9.98664 5.93948 10.1609 6.12729C10.3351 6.31509 10.4275 6.56441 10.4179 6.8204C10.4083 7.07639 10.2974 7.31807 10.1096 7.49229C9.91586 7.67104 9.39836 7.85854 8.57086 8.04854C8.54298 8.05502 8.51448 8.05837 8.48586 8.05854ZM9.45211 6.19729C9.30345 6.19746 9.16043 6.25422 9.05211 6.35604C8.94711 6.45354 8.74461 6.85604 8.49086 7.68479C9.33586 7.48854 9.74961 7.30979 9.85461 7.21729C9.94 7.13847 10.0001 7.03611 10.0273 6.92314C10.0545 6.81017 10.0476 6.69167 10.0075 6.58262C9.96734 6.47357 9.89576 6.37888 9.8018 6.31051C9.70784 6.24215 9.59572 6.20318 9.47961 6.19854L9.45211 6.19729Z" fill="white"/>
<path d="M11.8946 3.72479C11.9984 3.8911 12.0355 4.09055 11.9984 4.28307C11.9612 4.47559 11.8526 4.64692 11.6943 4.76263C11.536 4.87834 11.3398 4.92987 11.145 4.90685C10.9503 4.88383 10.7715 4.78797 10.6446 4.63854C10.4658 4.38854 10.3583 3.58729 10.3108 3.13854C10.3074 3.10612 10.3126 3.07337 10.3258 3.04358C10.339 3.01378 10.3599 2.98798 10.3862 2.96875C10.4125 2.94951 10.4434 2.93752 10.4758 2.93398C10.5082 2.93043 10.541 2.93545 10.5708 2.94854C10.9808 3.13354 11.7158 3.48354 11.8946 3.72479Z" fill="white"/>
<path d="M11.2684 5.14854C11.1163 5.149 10.9663 5.11332 10.8307 5.04443C10.695 4.97554 10.5777 4.87541 10.4884 4.75229C10.3322 4.53979 10.2084 4.00229 10.1197 3.15854C10.1144 3.09399 10.1259 3.02918 10.153 2.97039C10.1802 2.91161 10.2221 2.86087 10.2748 2.82311C10.3274 2.78535 10.3889 2.76186 10.4533 2.75492C10.5176 2.74799 10.5827 2.75785 10.6422 2.78354C11.4184 3.12729 11.8922 3.40854 12.0459 3.62229C12.1506 3.76593 12.2135 3.93571 12.2277 4.11287C12.2418 4.29002 12.2068 4.46765 12.1263 4.62611C12.0458 4.78458 11.9231 4.91771 11.7717 5.01079C11.6203 5.10387 11.4461 5.15327 11.2684 5.15354V5.14854ZM10.4897 3.12104C10.5834 3.98354 10.7059 4.41604 10.7909 4.53229C10.8839 4.65571 11.0217 4.73761 11.1746 4.76032C11.3275 4.78302 11.4832 4.7447 11.608 4.65364C11.7329 4.56257 11.8169 4.42606 11.842 4.27356C11.8671 4.12107 11.8313 3.96482 11.7422 3.83854C11.6584 3.72479 11.2847 3.47479 10.4897 3.12104Z" fill="white"/>
<path d="M15.8634 7.61604C15.7866 7.54882 15.7239 7.46714 15.6787 7.37567C15.6335 7.2842 15.6068 7.18472 15.6001 7.08293C15.5933 6.98113 15.6067 6.87901 15.6395 6.78238C15.6722 6.68576 15.7237 6.59653 15.7909 6.51979C15.8581 6.44305 15.9398 6.3803 16.0312 6.33512C16.1227 6.28994 16.2222 6.26323 16.324 6.2565C16.4258 6.24976 16.5279 6.26315 16.6245 6.29588C16.7212 6.32862 16.8104 6.38007 16.8871 6.44729C17.1146 6.64729 17.3971 7.41104 17.5421 7.84104C17.5526 7.8718 17.5549 7.9048 17.5486 7.9367C17.5423 7.9686 17.5277 7.99827 17.5062 8.02274C17.4848 8.0472 17.4573 8.06558 17.4265 8.07604C17.3958 8.08649 17.3628 8.08865 17.3309 8.08229C16.8846 7.99479 16.0909 7.81479 15.8634 7.61604Z" fill="white"/>
<path d="M17.3684 8.27354C17.3437 8.27358 17.3189 8.27107 17.2947 8.26604C16.4609 8.10229 15.9384 7.93104 15.7397 7.75604C15.5477 7.58745 15.4304 7.34959 15.4135 7.09464C15.3966 6.83969 15.4816 6.58846 15.6497 6.39604C15.8183 6.20393 16.0563 6.08666 16.3113 6.07001C16.5663 6.05337 16.8176 6.13872 17.0097 6.30729C17.2084 6.48104 17.4472 6.97729 17.7197 7.78104C17.7381 7.83698 17.7432 7.89649 17.7343 7.95475C17.7255 8.013 17.7031 8.06835 17.6689 8.11631C17.6347 8.16428 17.5896 8.20351 17.5374 8.23083C17.4852 8.25814 17.4273 8.27277 17.3684 8.27354ZM16.3759 6.44229H16.3359C16.2578 6.44658 16.1813 6.46661 16.111 6.50119C16.0408 6.53578 15.9782 6.58419 15.9272 6.64354C15.8762 6.70171 15.8371 6.76937 15.8123 6.84264C15.7874 6.91591 15.7773 6.99336 15.7824 7.07056C15.7875 7.14776 15.8078 7.2232 15.8421 7.29256C15.8763 7.36192 15.924 7.42384 15.9822 7.47479C16.0897 7.56979 16.5097 7.72479 17.3572 7.89854C17.0759 7.07854 16.8572 6.68354 16.7534 6.58854C16.649 6.49651 16.5151 6.44466 16.3759 6.44229ZM12.7897 7.86729H12.0397C11.9945 7.86717 11.9508 7.85083 11.9166 7.82124C11.8824 7.79164 11.86 7.75077 11.8534 7.70604C11.7822 7.20604 11.5872 6.84229 11.2747 6.62979C10.7559 6.27729 10.0684 6.43854 10.0609 6.43979C10.0125 6.45156 9.96143 6.44362 9.91888 6.41771C9.87634 6.39181 9.84582 6.35006 9.83405 6.30166C9.82228 6.25326 9.83023 6.20217 9.85613 6.15962C9.88203 6.11707 9.92378 6.08656 9.97218 6.07479C10.0059 6.06729 10.8247 5.87229 11.4822 6.31729C11.8572 6.56729 12.0922 6.96229 12.1972 7.49229H12.5722C12.5084 6.95979 12.2772 5.51729 11.5959 4.95729C11.5769 4.94161 11.5611 4.92234 11.5495 4.90057C11.5379 4.8788 11.5307 4.85496 11.5284 4.83041C11.526 4.80586 11.5285 4.78108 11.5357 4.75749C11.5429 4.7339 11.5546 4.71195 11.5703 4.69291C11.602 4.65446 11.6476 4.63015 11.6972 4.62535C11.7217 4.62297 11.7465 4.62545 11.7701 4.63264C11.7937 4.63984 11.8156 4.65161 11.8347 4.66729C12.7959 5.45854 12.9597 7.57729 12.9672 7.66729C12.9689 7.6929 12.9653 7.71858 12.9568 7.74278C12.9482 7.76697 12.9348 7.78917 12.9174 7.808C12.8999 7.82684 12.8788 7.84192 12.8554 7.85233C12.8319 7.86274 12.8066 7.86825 12.7809 7.86854L12.7897 7.86729Z" fill="white"/>
<path d="M13.5446 7.86729H12.9271C12.8791 7.86735 12.8328 7.84898 12.7979 7.81595C12.763 7.78292 12.7422 7.73776 12.7396 7.68979C12.5959 4.78979 13.3571 3.71604 13.3884 3.67104C13.4177 3.63076 13.4618 3.60378 13.5111 3.59605C13.5603 3.58831 13.6106 3.60045 13.6509 3.62979C13.6911 3.65913 13.7181 3.70326 13.7258 3.75249C13.7336 3.80172 13.7214 3.85201 13.6921 3.89229C13.6809 3.90854 13.0096 4.89229 13.1059 7.49229H13.3446C13.3446 7.03604 13.4059 5.93229 14.1121 5.29979C14.1492 5.26663 14.198 5.24959 14.2477 5.2524C14.2974 5.25522 14.344 5.27766 14.3771 5.31479C14.4103 5.35192 14.4273 5.4007 14.4245 5.45039C14.4217 5.50009 14.3992 5.54663 14.3621 5.57979C13.6121 6.24854 13.7259 7.64979 13.7271 7.66354C13.7295 7.68943 13.7265 7.71554 13.7183 7.7402C13.71 7.76485 13.6967 7.78751 13.6791 7.8067C13.6616 7.82589 13.6402 7.8412 13.6164 7.85164C13.5926 7.86207 13.5669 7.8674 13.5409 7.86729H13.5446Z" fill="white"/>
<path d="M13.7709 7.86729C13.7518 7.86744 13.7328 7.86448 13.7146 7.85854C13.6909 7.85154 13.6687 7.83987 13.6495 7.82421C13.6303 7.80855 13.6144 7.7892 13.6027 7.76732C13.5911 7.74543 13.5839 7.72144 13.5817 7.69675C13.5795 7.67206 13.5822 7.64717 13.5896 7.62354C13.7671 7.05479 14.0659 6.66229 14.4759 6.45729C14.8459 6.2827 15.2682 6.25413 15.6584 6.37729C15.6816 6.38549 15.703 6.3982 15.7213 6.41467C15.7396 6.43114 15.7545 6.45106 15.7652 6.47329C15.7758 6.49551 15.7819 6.51962 15.7832 6.54422C15.7845 6.56882 15.781 6.59343 15.7728 6.61666C15.7646 6.63989 15.7519 6.66127 15.7354 6.67959C15.7189 6.69791 15.699 6.71281 15.6768 6.72343C15.6545 6.73405 15.6304 6.74019 15.6058 6.74149C15.5812 6.7428 15.5566 6.73924 15.5334 6.73104C15.2373 6.64233 14.919 6.66501 14.6384 6.79479C14.3246 6.95354 14.0922 7.26979 13.9459 7.73604C13.9341 7.77348 13.9109 7.80628 13.8795 7.82983C13.8481 7.85337 13.8101 7.86648 13.7709 7.86729Z" fill="white"/>
</svg>
