<svg width="26" height="26" viewBox="0 0 26 26" fill="none" xmlns="http://www.w3.org/2000/svg">
<g clip-path="url(#clip0_3053_192)">
<path d="M4.64141 18.6689C4.7105 18.6673 4.77882 18.6836 4.8398 18.7161C4.90077 18.7487 4.95235 18.7964 4.98956 18.8546C5.02676 18.9128 5.04835 18.9797 5.05224 19.0487C5.05613 19.1177 5.04219 19.1865 5.01177 19.2486L3.83628 21.7445C3.82076 21.7783 3.79578 21.807 3.76436 21.827C3.73293 21.847 3.6964 21.8575 3.65915 21.8572H2.78961C2.76282 21.8573 2.7363 21.8518 2.71174 21.8411C2.68718 21.8304 2.66512 21.8147 2.64695 21.795C2.62878 21.7753 2.6149 21.7521 2.60619 21.7267C2.59749 21.7014 2.59414 21.6745 2.59638 21.6478L3.09556 18.9587C3.11438 18.8664 3.16497 18.7836 3.23852 18.7248C3.31208 18.6659 3.40394 18.6348 3.49812 18.6367L4.64141 18.6689ZM23.4332 21.68C23.4354 21.7067 23.4321 21.7336 23.4234 21.7589C23.4147 21.7843 23.4008 21.8075 23.3826 21.8272C23.3644 21.8469 23.3424 21.8626 23.3178 21.8733C23.2932 21.884 23.2667 21.8895 23.2399 21.8894H22.4026C22.3654 21.8897 22.3288 21.8792 22.2974 21.8592C22.266 21.8392 22.241 21.8105 22.2255 21.7767L21.0661 19.2486C21.0371 19.1901 21.0227 19.1255 21.0242 19.0602C21.0257 18.995 21.0431 18.9311 21.0748 18.8741C21.1065 18.817 21.1515 18.7685 21.2061 18.7328C21.2607 18.697 21.3232 18.6751 21.3881 18.6689H22.5314C22.6256 18.667 22.7175 18.6981 22.791 18.757C22.8646 18.8158 22.9152 18.8986 22.934 18.9909L23.4332 21.68Z" fill="white"/>
<path d="M2.31607 10.9713C2.72533 9.71018 3.99153 8.93469 5.30551 9.11149C7.42037 9.39605 10.5911 9.76063 12.968 9.7628C15.3753 9.765 18.5899 9.39692 20.7247 9.11051C22.0384 8.93427 23.3041 9.70975 23.7132 10.9705L24.5479 13.5423C25.1112 15.2782 23.8172 17.0586 21.9922 17.0586H4.03732C2.21234 17.0586 0.918322 15.2782 1.48167 13.5423L2.31607 10.9713Z" fill="white"/>
</g>
<defs>
<clipPath id="clip0_3053_192">
<rect width="25" height="25" fill="white" transform="translate(0.427063 0.561783)"/>
</clipPath>
</defs>
</svg>
