<svg width="26" height="26" viewBox="0 0 26 26" fill="none" xmlns="http://www.w3.org/2000/svg">
<g clip-path="url(#clip0_3053_202)">
<path d="M23.2286 23.7089H22.803V2.37029C22.803 1.66994 22.2357 1.10256 21.5353 1.10256H4.68246C4.02644 1.10256 3.29949 1.62561 3.29949 2.37029V23.7178H2.87395C2.48388 23.7178 2.16473 24.037 2.16473 24.427C2.16473 24.8171 2.48388 25.1362 2.87395 25.1362H23.2286C23.6186 25.1362 23.9378 24.8171 23.9378 24.427C23.9378 24.0281 23.6186 23.7089 23.2286 23.7089ZM17.6878 18.3189C18.5034 16.5458 19.5672 14.9146 20.8615 13.4519C21.0388 13.5494 21.2162 13.638 21.3935 13.7267V23.7178H16.1009C16.3669 21.8472 16.8988 20.0299 17.6878 18.3189ZM14.6736 23.7089H11.4821C11.2073 21.5902 10.6222 19.5423 9.73565 17.6008C8.91119 15.81 7.84736 14.1433 6.5619 12.6451C7.92714 11.7143 9.15055 10.5706 10.1612 9.24972C11.624 7.33483 12.6169 5.09192 13.0601 2.7249C13.4945 5.06533 14.4697 7.2905 15.9236 9.2054C16.9608 10.5706 18.2197 11.7586 19.6381 12.7072C18.3261 14.2231 17.2445 15.9164 16.4112 17.7338C15.5335 19.6309 14.9484 21.6433 14.6736 23.7089ZM21.3935 12.1309C19.7002 11.1912 18.2108 9.90575 17.0406 8.35433C15.7374 6.63448 14.842 4.62207 14.452 2.51214H21.3935V12.1309ZM11.6594 2.51214C11.2605 4.6398 10.3651 6.66994 9.0353 8.39866C7.86509 9.93235 6.38459 11.2001 4.71793 12.1309V2.51214H11.6594ZM4.71793 13.7267C4.93069 13.6203 5.13459 13.5139 5.33849 13.4075C6.60622 14.8526 7.65232 16.466 8.45019 18.2036C9.25693 19.9589 9.78885 21.8118 10.0548 23.7178H4.71793V13.7267Z" fill="white"/>
</g>
<defs>
<clipPath id="clip0_3053_202">
<rect width="25" height="25" fill="white" transform="translate(0.427124 0.561783)"/>
</clipPath>
</defs>
</svg>
