<svg width="26" height="26" viewBox="0 0 26 26" fill="none" xmlns="http://www.w3.org/2000/svg">
<g clip-path="url(#clip0_3053_97)">
<path d="M23.62 19.6039H22.4962C21.5099 19.6039 20.7061 20.2942 20.6898 21.1479C20.7061 22.0017 21.5098 22.692 22.4961 22.692L23.6199 22.6921C24.6062 22.6921 25.41 22.0018 25.4264 21.148C25.41 20.2942 24.6063 19.6039 23.62 19.6039ZM23.6199 4.08387H22.4961C21.4996 4.08387 20.689 4.78836 20.689 5.65418V19.0781C21.186 18.7157 21.8138 18.4984 22.4962 18.4984H23.6199C24.3023 18.4984 24.9301 18.7157 25.427 19.0781V5.65423C25.4271 4.7883 24.6164 4.08387 23.6199 4.08387ZM6.69122 8.28455H19.5836V18.0422H6.69122V8.28455Z" fill="white"/>
<path d="M19.5836 5.25238H3.77258L0.979874 5.25243C0.674524 5.25243 0.427124 5.49994 0.427124 5.80518C0.427124 6.11048 0.674628 6.35788 0.979874 6.35788L3.21983 6.35783V8.19932H0.979874C0.674628 8.19927 0.427124 8.44677 0.427124 8.75202C0.427124 9.05727 0.674628 9.30477 0.979874 9.30477H3.21983V11.1461H0.979874C0.674628 11.1461 0.427124 11.3936 0.427124 11.6988C0.427124 12.0041 0.674628 12.2516 0.979874 12.2516H3.21983V14.093H0.979874C0.674628 14.0929 0.427124 14.3404 0.427124 14.6456C0.427124 14.9509 0.674628 15.1984 0.979874 15.1984H3.21983V17.0398H0.979874C0.674628 17.0397 0.427124 17.2872 0.427124 17.5924C0.427124 17.8977 0.674628 18.1452 0.979874 18.1452H3.21983V19.969H0.979874C0.674628 19.969 0.427124 20.2165 0.427124 20.5217C0.427124 20.827 0.674628 21.0745 0.979874 21.0745H3.77258L3.77367 21.0744H19.5837V19.1477L6.13855 19.1477C5.99198 19.1477 5.85141 19.0895 5.74777 18.9858C5.64412 18.8822 5.58588 18.7416 5.58585 18.5951V7.73191C5.58585 7.42666 5.8333 7.17916 6.13855 7.17916L19.5837 7.17905V5.25238H19.5836Z" fill="white"/>
</g>
<defs>
<clipPath id="clip0_3053_97">
<rect width="25" height="25" fill="white" transform="translate(0.427124 0.887909)"/>
</clipPath>
</defs>
</svg>
