<svg width="26" height="26" viewBox="0 0 26 26" fill="none" xmlns="http://www.w3.org/2000/svg">
<g clip-path="url(#clip0_3053_92)">
<path d="M14.5547 13.6155V11.2765C14.5547 10.5728 14.1081 9.97354 13.4829 9.74644V1.44361C13.4829 1.13672 13.2341 0.887909 12.9272 0.887909C12.6203 0.887909 12.3715 1.13672 12.3715 1.44361V9.74644C11.7462 9.97354 11.2997 10.5728 11.2997 11.2765V13.6155C7.11662 14.356 3.8889 17.8984 3.633 22.2277H22.2214C21.9654 17.8984 18.7377 14.356 14.5547 13.6155ZM12.9272 25.8874C14.8713 25.8874 16.5819 24.8696 17.5549 23.3391H8.29946C9.27236 24.8696 10.9831 25.8874 12.9272 25.8874Z" fill="white"/>
</g>
<defs>
<clipPath id="clip0_3053_92">
<rect width="25" height="25" fill="white" transform="translate(0.427124 0.887909)"/>
</clipPath>
</defs>
</svg>
