<svg width="26" height="26" viewBox="0 0 26 26" fill="none" xmlns="http://www.w3.org/2000/svg">
<path d="M4.82782 3.50554H21.0266C21.4562 3.50554 21.8682 3.6762 22.172 3.97999C22.4758 4.28377 22.6464 4.6958 22.6464 5.12541V21.3242C22.6464 21.7538 22.4758 22.1658 22.172 22.4696C21.8682 22.7734 21.4562 22.944 21.0266 22.944H4.82782C4.3982 22.944 3.98618 22.7734 3.6824 22.4696C3.37861 22.1658 3.20795 21.7538 3.20795 21.3242V5.12541C3.20795 4.6958 3.37861 4.28377 3.6824 3.97999C3.98618 3.6762 4.3982 3.50554 4.82782 3.50554ZM4.82782 5.12541V21.3242H21.0266V5.12541H4.82782ZM13.2512 3.50554H15.5422L11.992 7.05576L15.0465 10.1103L21.5368 3.62001L21.4904 3.57303C21.7756 3.65855 22.0318 3.82092 22.2308 4.04236C22.4299 4.2638 22.5641 4.53576 22.6189 4.82844L21.0627 6.38514L10.7539 16.694L13.8084 19.748L22.6464 10.91V13.201L12.9034 22.944H10.6124L12.6626 20.8938L9.60861 17.8393L4.53084 22.917C4.15908 22.8477 3.82329 22.6505 3.58167 22.3596C3.34005 22.0686 3.20784 21.7023 3.20795 21.3242L3.59186 21.5644L13.9007 11.2561L10.8462 8.20155L3.20795 15.8398V13.5493L4.86832 11.8884L13.2517 3.50554H13.2512Z" fill="white"/>
</svg>
