<svg width="26" height="26" viewBox="0 0 26 26" fill="none" xmlns="http://www.w3.org/2000/svg">
<path d="M17.4155 5.13504C18.2091 5.13504 18.7423 5.33271 19.0143 5.72806C19.2876 6.12341 19.4236 6.73504 19.4236 7.56295V13.21C19.4236 13.9066 19.2748 14.4717 18.9777 14.9042C18.68 15.3374 18.1184 15.5536 17.2917 15.5536H9.78179C8.98876 15.5536 8.43469 15.3467 8.12074 14.9327C7.80679 14.5188 7.64981 13.8595 7.64981 12.956V7.56295C7.64981 6.77225 7.79865 6.17051 8.09632 5.75597C8.39341 5.34202 8.94748 5.13504 9.75679 5.13504H17.4161H17.4155ZM20.5393 17.1409V9.2519C20.5393 8.81527 20.6673 8.49958 20.9231 8.30539C21.1795 8.1112 21.4975 8.01469 21.8777 8.01469H23.0178C23.4969 8.01469 23.8149 8.16004 23.9719 8.45074C24.1289 8.7426 24.2074 9.04202 24.2074 9.34899V19.835C24.2074 20.806 23.7283 21.2914 22.7702 21.2914H21.9027V23.4275H20.3161V21.2914H6.78237V23.4275H5.22074V21.2914H4.22946C3.35388 21.2914 2.89923 20.7897 2.86609 19.7868V9.22806C2.86609 8.82341 2.98993 8.51992 3.23818 8.3176C3.48586 8.11527 3.79981 8.01411 4.18004 8.01411H5.14632C5.62597 8.01411 5.97714 8.13969 6.19981 8.39027C6.42307 8.64144 6.54283 8.96876 6.55911 9.37341V9.90771C6.55911 10.1664 6.55504 10.4862 6.54748 10.8664C6.53872 11.283 6.53446 11.6997 6.53469 12.1164V17.1409H20.5393Z" fill="white"/>
</svg>
