<svg width="26" height="25" viewBox="0 0 26 25" fill="none" xmlns="http://www.w3.org/2000/svg">
<path d="M23.4079 11.8046H3.44642C3.00321 11.8046 2.64258 12.1651 2.64258 12.6083V18.7758C2.64258 19.219 3.00321 19.5796 3.44642 19.5796H4.63767L4.10504 21.5333C4.03337 21.796 4.18829 22.0671 4.45093 22.1387C4.49438 22.1505 4.53801 22.1562 4.58092 22.1562C4.79782 22.1562 4.99655 22.012 5.05627 21.7927L5.65967 19.5796L21.1948 19.5796L21.7982 21.7927C21.8579 22.012 22.0566 22.1562 22.2735 22.1562C22.3164 22.1562 22.3601 22.1505 22.4035 22.1387C22.6662 22.0671 22.8211 21.796 22.7494 21.5333L22.2168 19.5796H23.4081C23.8513 19.5796 24.2119 19.219 24.2119 18.7757V12.6083C24.2118 12.1651 23.8511 11.8046 23.4079 11.8046ZM14.1682 16.1851H12.6861C12.4139 16.1851 12.1931 15.9644 12.1931 15.6921C12.1931 15.4198 12.4139 15.1991 12.6861 15.1991H14.1682C14.4405 15.1991 14.6612 15.4198 14.6612 15.6921C14.6612 15.9644 14.4405 16.1851 14.1682 16.1851ZM23.4079 2.82948H3.44642C3.00321 2.82948 2.64258 3.19007 2.64258 3.63323V9.80074C2.64258 10.2439 3.00321 10.6045 3.44642 10.6045H23.4079C23.8511 10.6045 24.2118 10.2439 24.2118 9.80074V3.63328C24.2118 3.19007 23.8511 2.82948 23.4079 2.82948ZM14.1682 7.21H12.6861C12.4139 7.21 12.1931 6.98932 12.1931 6.71699C12.1931 6.4447 12.4139 6.22397 12.6861 6.22397H14.1682C14.4405 6.22397 14.6612 6.44465 14.6612 6.71699C14.6612 6.98928 14.4405 7.21 14.1682 7.21Z" fill="white"/>
</svg>
