<svg width="26" height="26" viewBox="0 0 26 26" fill="none" xmlns="http://www.w3.org/2000/svg">
<g clip-path="url(#clip0_3053_114)">
<path d="M12.9281 12.4197C21.8007 12.4197 24.2936 9.85723 24.2936 9.85723L24.277 24.4129C24.2853 24.4697 24.2936 24.5265 24.2936 24.5868C24.2936 25.2936 23.7832 25.8686 23.1581 25.8686C22.5331 25.8686 22.0278 25.3004 22.0216 24.5993H22.006V13.7129C21.4604 13.9646 20.8957 14.1638 20.3183 14.3084V21.9038C20.3246 21.9572 20.3329 22.0095 20.3329 22.0663C20.3329 22.7731 19.8256 23.3459 19.1974 23.3459C18.5692 23.3459 18.0598 22.7731 18.0598 22.0663C18.0598 22.0527 18.0629 22.0425 18.0629 22.0322H18.0452V14.7322C16.5243 14.9288 14.8127 15.0118 12.9875 15.0118C11.127 15.0118 9.37264 14.9265 7.81731 14.7231V22.0311H7.80793V22.0368C7.80793 22.7425 7.29956 23.3152 6.67347 23.3152C6.04737 23.3152 5.539 22.7425 5.539 22.0368C5.539 22.0186 5.54421 22.005 5.54421 21.9879V14.2902C4.95898 14.1414 4.38666 13.9376 3.83365 13.6811V24.5845L3.83678 24.6061C3.83678 25.314 3.32632 25.8879 2.69918 25.8879C2.07622 25.8879 1.56993 25.3209 1.56472 24.6186H1.56159L1.56263 9.85723C1.56263 9.85723 3.79511 12.4197 12.9281 12.4197ZM12.9313 10.4913C6.04425 10.4902 0.427124 8.65723 0.427124 6.01518C0.427124 3.41859 6.13176 0.887909 12.9313 0.887909C19.7162 0.887909 25.4292 3.47995 25.4292 6.01518C25.4292 8.65723 19.8183 10.4913 12.9313 10.4913Z" fill="white"/>
</g>
<defs>
<clipPath id="clip0_3053_114">
<rect width="25" height="25" fill="white" transform="translate(0.427124 0.887909)"/>
</clipPath>
</defs>
</svg>
