<svg width="26" height="26" viewBox="0 0 26 26" fill="none" xmlns="http://www.w3.org/2000/svg">
<path d="M17.5938 13.6442V17.8109H9.2605V13.6442H17.5938ZM23.8438 8.4359H14.4688V12.6026H22.2813C22.4195 12.6026 22.5519 12.6574 22.6496 12.7551C22.7473 12.8528 22.8022 12.9853 22.8022 13.1234C22.8022 13.2615 22.7473 13.394 22.6496 13.4917C22.5519 13.5894 22.4195 13.6442 22.2813 13.6442H18.6355V17.8109H23.8438V8.4359ZM3.0105 13.6442V17.8109H8.21883V13.6442H3.0105ZM3.0105 12.6026H13.4272V7.91507C13.4272 7.84667 13.4406 7.77894 13.4668 7.71575C13.493 7.65256 13.5314 7.59515 13.5797 7.54678C13.6281 7.49842 13.6855 7.46005 13.7487 7.43388C13.8119 7.40771 13.8796 7.39423 13.948 7.39423H17.5938V2.1859H9.2605V7.39423H11.8647C12.0028 7.39423 12.1353 7.44911 12.2329 7.54678C12.3306 7.64446 12.3855 7.77693 12.3855 7.91507C12.3855 8.0532 12.3306 8.18568 12.2329 8.28335C12.1353 8.38103 12.0028 8.4359 11.8647 8.4359H3.0105V12.6026ZM13.4272 18.8526H3.0105V21.7172C3.01089 22.0624 3.14819 22.3933 3.3923 22.6374C3.6364 22.8815 3.96737 23.0188 4.31258 23.0192H13.4272V18.8526ZM14.4688 18.8526V23.0192H22.5417C22.887 23.0188 23.2179 22.8815 23.462 22.6374C23.7061 22.3933 23.8434 22.0624 23.8438 21.7172V18.8526H14.4688ZM8.21883 7.39423V2.1859H4.31258C3.96737 2.18629 3.6364 2.3236 3.3923 2.5677C3.14819 2.81181 3.01089 3.14277 3.0105 3.48799V7.39423H8.21883ZM18.6355 7.39423H23.8438V3.48799C23.8434 3.14277 23.7061 2.81181 23.462 2.5677C23.2179 2.3236 22.887 2.18629 22.5417 2.1859H18.6355V7.39423Z" fill="white"/>
</svg>
