<svg width="26" height="26" viewBox="0 0 26 26" fill="none" xmlns="http://www.w3.org/2000/svg">
<g clip-path="url(#clip0_3053_103)">
<path d="M3.27328 10.2386C3.27328 8.9338 4.33478 7.87224 5.63959 7.87224H10.9514C11.7762 7.87224 12.5035 8.29674 12.9271 8.9384C13.3508 8.29669 14.078 7.87224 14.9028 7.87224H20.2147C21.5195 7.87224 22.581 8.9338 22.581 10.2386V10.3475H23.1734V8.04002C23.1734 6.60812 22.0084 5.44318 20.5765 5.44318H5.27768C3.84578 5.44318 2.68084 6.60812 2.68084 8.04002V10.3475H3.27322V10.2386H3.27328ZM24.4326 11.4525H1.42164C0.87326 11.4525 0.427124 11.8987 0.427124 12.447V18.2204C0.427124 18.7688 0.87326 19.2149 1.42164 19.2149H1.83563L1.34647 20.5955C1.24454 20.8831 1.39513 21.1989 1.6827 21.3008C1.74374 21.3223 1.80602 21.3326 1.86726 21.3326C2.09467 21.3326 2.30775 21.1911 2.38804 20.9645L3.00796 19.2149H22.8463L23.4662 20.9645C23.5465 21.1911 23.7595 21.3326 23.987 21.3326C24.0482 21.3326 24.1105 21.3223 24.1715 21.3008C24.4592 21.1988 24.6097 20.883 24.5078 20.5955L24.0186 19.2149H24.4326C24.981 19.2149 25.4271 18.7688 25.4271 18.2204V12.447C25.4271 11.8987 24.981 11.4525 24.4326 11.4525Z" fill="white"/>
<path d="M14.9028 8.97728C14.2074 8.97728 13.6416 9.54305 13.6416 10.2385V10.3475H21.4759V10.2385C21.4759 9.54305 20.9101 8.97728 20.2147 8.97728H14.9028ZM5.63957 8.97728C4.94407 8.97728 4.3783 9.5431 4.3783 10.2386V10.3475H12.2127V10.2385C12.2127 9.54305 11.6469 8.97728 10.9514 8.97728H5.63957Z" fill="white"/>
</g>
<defs>
<clipPath id="clip0_3053_103">
<rect width="25" height="25" fill="white" transform="translate(0.427124 0.887909)"/>
</clipPath>
</defs>
</svg>
