<svg width="25" height="26" viewBox="0 0 25 26" fill="none" xmlns="http://www.w3.org/2000/svg">
<path d="M18.2357 16.05C18.437 15.0665 18.7041 14.1762 19.0519 13.3282C19.356 12.5897 19.7217 11.878 20.145 11.2007C19.6893 10.6885 19.1271 9.93122 18.6559 8.80313C18.0272 7.29808 17.7084 5.45628 17.7084 3.32901V2.80817H12.5V21.5582H17.7232C17.77 19.24 17.9307 17.5396 18.2357 16.05ZM14.5834 13.7457C14.5834 13.8838 14.5285 14.0163 14.4308 14.114C14.3331 14.2116 14.2007 14.2665 14.0625 14.2665C13.9244 14.2665 13.7919 14.2116 13.6942 14.114C13.5966 14.0163 13.5417 13.8838 13.5417 13.7457V10.6207C13.5417 10.4825 13.5966 10.3501 13.6942 10.2524C13.7919 10.1547 13.9244 10.0998 14.0625 10.0998C14.2007 10.0998 14.3331 10.1547 14.4308 10.2524C14.5285 10.3501 14.5834 10.4825 14.5834 10.6207V13.7457ZM3.38544 21.5582H11.4584V2.80817H3.38544C3.04022 2.80856 2.70926 2.94587 2.46515 3.18997C2.22105 3.43408 2.08374 3.76504 2.08335 4.11026V20.2561C2.08374 20.6013 2.22105 20.9323 2.46515 21.1764C2.70926 21.4205 3.04022 21.5578 3.38544 21.5582ZM6.71584 11.3744L5.67417 13.4577C5.61151 13.5798 5.50325 13.6721 5.3729 13.7148C5.24255 13.7575 5.10062 13.747 4.97795 13.6857C4.85527 13.6243 4.76174 13.5171 4.71766 13.3872C4.67358 13.2573 4.68252 13.1153 4.74253 12.9919L5.7842 10.9086C5.81433 10.8467 5.85645 10.7913 5.90811 10.7458C5.95977 10.7002 6.01995 10.6654 6.08517 10.6433C6.15039 10.6211 6.21934 10.6122 6.28805 10.6169C6.35676 10.6215 6.42386 10.6398 6.48546 10.6706C6.54706 10.7014 6.60194 10.7441 6.64692 10.7963C6.6919 10.8484 6.7261 10.909 6.74752 10.9744C6.76895 11.0399 6.77718 11.1089 6.77174 11.1776C6.7663 11.2463 6.7473 11.3132 6.71584 11.3744ZM9.37502 10.6207C9.37502 10.4825 9.42989 10.3501 9.52757 10.2524C9.62524 10.1547 9.75772 10.0998 9.89585 10.0998C10.034 10.0998 10.1665 10.1547 10.2641 10.2524C10.3618 10.3501 10.4167 10.4825 10.4167 10.6207V13.7457C10.4167 13.8838 10.3618 14.0163 10.2641 14.114C10.1665 14.2116 10.034 14.2665 9.89585 14.2665C9.75772 14.2665 9.62524 14.2116 9.52757 14.114C9.42989 14.0163 9.37502 13.8838 9.37502 13.7457V10.6207ZM3.70087 10.9086L5.7842 6.74193C5.84686 6.61992 5.95512 6.52755 6.08547 6.48488C6.21583 6.44221 6.35775 6.45268 6.48043 6.51402C6.60311 6.57536 6.69664 6.68262 6.74071 6.8125C6.78479 6.94239 6.77585 7.08441 6.71584 7.20775L4.63251 11.3744C4.56985 11.4964 4.46159 11.5888 4.33123 11.6315C4.20088 11.6741 4.05896 11.6637 3.93628 11.6023C3.8136 11.541 3.72007 11.4337 3.67599 11.3038C3.63192 11.174 3.64086 11.0319 3.70087 10.9086ZM23.9584 23.1207C23.9584 23.1891 23.9449 23.2568 23.9187 23.32C23.8925 23.3832 23.8542 23.4406 23.8058 23.489C23.7574 23.5373 23.7 23.5757 23.6368 23.6019C23.5736 23.628 23.5059 23.6415 23.4375 23.6415H1.56252C1.42439 23.6415 1.29191 23.5866 1.19424 23.489C1.09656 23.3913 1.04169 23.2588 1.04169 23.1207C1.04169 22.9825 1.09656 22.8501 1.19424 22.7524C1.29191 22.6547 1.42439 22.5998 1.56252 22.5998H18.7516C18.7868 16.9683 19.4095 14.2107 21.2362 11.4273C21.3011 11.3284 21.3305 11.2102 21.3193 11.0924C21.3082 10.9746 21.2572 10.864 21.1748 10.779C20.5751 10.1601 18.75 8.27692 18.75 3.32901V2.80817H21.6146C21.9598 2.80856 22.2908 2.94587 22.5349 3.18997C22.779 3.43408 22.9163 3.76504 22.9167 4.11026V22.5998H23.4375C23.5059 22.5998 23.5736 22.6133 23.6368 22.6395C23.7 22.6657 23.7574 22.704 23.8058 22.7524C23.8542 22.8008 23.8925 22.8582 23.9187 22.9214C23.9449 22.9845 23.9584 23.0523 23.9584 23.1207Z" fill="white"/>
</svg>
